HIERARCHY
ROOT Hips
{
    OFFSET 0.000000 0.000000 0.000000
    CHANNELS 6 Xposition Yposition Zposition Zrotation Xrotation Yrotation
    JOINT Spine
    {
        OFFSET -0.000000 7.883683 0.000000
        CHANNELS 3 Zrotation Xrotation Yrotation
        JOINT Spine1
        {
            OFFSET -0.000000 24.776327 0.000000
            CHANNELS 3 Zrotation Xrotation Yrotation
            JOINT Neck
            {
                OFFSET -0.000000 24.674574 2.243143
                CHANNELS 3 Zrotation Xrotation Yrotation
                JOINT Head
                {
                    OFFSET -0.000000 13.459947 -1.922849
                    CHANNELS 3 Zrotation Xrotation Yrotation
                    End Site
                    {
                        OFFSET -0.000000 24.035618 0.000000
                    }
                }
            }
            JOINT LeftShoulder
            {
                OFFSET 3.810223 22.323311 -0.325006
                CHANNELS 3 Zrotation Xrotation Yrotation
                JOINT LeftArm
                {
                    OFFSET 12.560579 0.000000 0.000000
                    CHANNELS 3 Zrotation Xrotation Yrotation
                    JOINT LeftForeArm
                    {
                        OFFSET 28.806782 0.000000 0.000000
                        CHANNELS 3 Zrotation Xrotation Yrotation
                        JOINT LeftHand
                        {
                            OFFSET 23.813900 0.000000 0.000000
                            CHANNELS 3 Zrotation Xrotation Yrotation
                            End Site
                            {
                                OFFSET 14.421371 0.000000 0.000000
                            }
                        }
                    }
                }
            }
            JOINT RightShoulder
            {
                OFFSET -3.823061 22.323311 -0.325006
                CHANNELS 3 Zrotation Xrotation Yrotation
                JOINT RightArm
                {
                    OFFSET -12.560579 0.000000 0.000000
                    CHANNELS 3 Zrotation Xrotation Yrotation
                    JOINT RightForeArm
                    {
                        OFFSET -28.806782 0.000000 0.000000
                        CHANNELS 3 Zrotation Xrotation Yrotation
                        JOINT RightHand
                        {
                            OFFSET -23.813900 0.000000 0.000000
                            CHANNELS 3 Zrotation Xrotation Yrotation
                            End Site
                            {
                                OFFSET -14.421371 0.000000 0.000000
                            }
                        }
                    }
                }
            }
        }
    }
    JOINT LeftUpLeg
    {
        OFFSET 9.614247 0.000000 0.000000
        CHANNELS 3 Zrotation Xrotation Yrotation
        JOINT LeftLeg
        {
            OFFSET -0.000000 -41.464203 0.000000
            CHANNELS 3 Zrotation Xrotation Yrotation
            JOINT LeftFoot
            {
                OFFSET -0.000000 -34.276012 0.000000
                CHANNELS 3 Zrotation Xrotation Yrotation
                JOINT LeftToeBase
                {
                    OFFSET -0.000000 -6.249260 14.421371
                    CHANNELS 3 Zrotation Xrotation Yrotation
                    End Site
                    {
                        OFFSET -0.000000 0.000000 3.845699
                    }
                }
            }
        }
    }
    JOINT RightUpLeg
    {
        OFFSET -9.614247 0.000000 0.000000
        CHANNELS 3 Zrotation Xrotation Yrotation
        JOINT RightLeg
        {
            OFFSET -0.000000 -41.464203 0.000000
            CHANNELS 3 Zrotation Xrotation Yrotation
            JOINT RightFoot
            {
                OFFSET -0.000000 -34.276012 0.000000
                CHANNELS 3 Zrotation Xrotation Yrotation
                JOINT RightToeBase
                {
                    OFFSET -0.000000 -6.249260 14.421371
                    CHANNELS 3 Zrotation Xrotation Yrotation
                    End Site
                    {
                        OFFSET -0.000000 0.000000 3.845699
                    }
                }
            }
        }
    }
}
MOTION
Frames:    7
Frame Time:    0.004000
-13.534016    84.315422    -49.366467    -0.304743    -0.200937    -11.108969    -1.316404    8.775414    3.945061    -1.189463    -0.299287    3.840854    3.617211    12.997195    -3.818644    -3.017579    6.564567    -4.345937    2.418577    6.872392    12.409394    -56.786312    50.208092    -20.349241    3.768991    -2.982363    -20.319063    -11.351271    -1.727885    -5.825494    -2.704278    4.431520    7.289029    63.449413    37.294353    21.993940    -2.445349    3.570062    16.712778    9.675331    4.186613    3.051345    2.542034    -22.440313    5.121779    -4.023916    29.394321    0.048338    1.952915    -0.279490    19.523623    0.000000    0.000000    0.000000    -3.454040    16.605137    6.692751    0.370495    7.799742    2.115125    3.398225    1.113203    -3.437265    0.000000    0.000000    0.000000    
-13.453192    84.339676    -49.137611    -0.273882    -0.029988    -11.110245    -1.331296    8.723744    3.941180    -1.266420    -0.336519    3.835835    3.633134    12.860986    -3.862832    -2.917690    6.783888    -4.382899    2.388157    6.946857    12.381320    -56.587799    50.084175    -20.599298    3.794610    -2.948117    -20.346331    -11.142702    -1.706978    -5.741924    -2.645163    4.341080    7.283000    63.521339    37.400078    21.949604    -2.431694    3.436262    16.672131    9.604398    4.053696    3.117684    2.461604    -22.398769    5.270237    -3.932877    29.321089    -0.143022    1.998820    -0.488054    19.511604    0.000000    0.000000    0.000000    -3.533486    16.472607    6.611304    0.347298    7.909462    2.135558    3.656209    1.325739    -3.209298    0.000000    0.000000    0.000000    
-13.377473    84.360794    -48.898693    -0.268071    0.079234    -11.115550    -1.377008    8.702942    3.941590    -1.248437    -0.337053    3.833050    3.632006    12.811799    -3.882081    -2.859710    6.820459    -4.398771    2.445765    6.857453    12.379089    -56.575863    50.213131    -20.694862    3.814967    -2.866832    -20.401827    -10.952400    -1.664577    -5.378522    -2.670283    4.395219    7.300202    63.494324    37.448692    22.080696    -2.407258    3.366006    16.647491    9.537839    3.987287    3.234633    2.400748    -22.234121    5.052450    -4.062617    29.117468    0.087234    2.082362    -0.711665    19.479980    0.000000    0.000000    0.000000    -3.582085    16.401688    6.476642    0.279186    8.040457    2.198667    3.815668    1.618932    -3.077683    0.000000    0.000000    0.000000    
-13.296193    84.372490    -48.660618    -0.334502    0.100051    -11.087829    -1.331942    8.824439    3.916623    -1.268032    -0.368505    3.809683    3.679090    12.756223    -3.890549    -2.897098    6.831716    -4.413884    2.403479    6.906470    12.360635    -56.408787    50.169174    -20.928394    3.825863    -2.916450    -20.428862    -10.719910    -1.729719    -5.300285    -2.720999    4.228873    7.387662    63.732903    37.530746    21.887661    -2.424386    3.393886    16.656446    9.282652    4.015602    3.296056    2.376607    -22.018793    5.046223    -4.044623    29.029545    -0.033056    2.173472    -0.990924    19.484051    0.000000    0.000000    0.000000    -3.579180    16.406099    6.358141    0.240785    8.218258    2.227305    3.940244    1.902964    -2.958446    0.000000    0.000000    0.000000    
-13.213690    84.397873    -48.428474    -0.298283    0.249632    -11.081412    -1.394582    8.760806    3.909893    -1.247417    -0.381958    3.798807    3.687270    12.772254    -3.897169    -2.860021    6.766410    -4.418991    2.370023    6.872123    12.343110    -56.332863    50.160156    -21.039865    3.828354    -2.883467    -20.449020    -10.388101    -1.711142    -5.299482    -2.691638    4.366241    7.381752    63.556538    37.576477    22.119852    -2.379714    3.381897    16.553921    9.251130    4.004246    3.422862    2.278375    -21.935354    5.141271    -3.976553    28.906569    -0.148585    2.253419    -1.171481    19.423067    0.000000    0.000000    0.000000    -3.661948    16.257143    6.263358    0.217806    8.386238    2.187314    4.195013    2.148246    -2.926752    0.000000    0.000000    0.000000    
-13.128798    84.421661    -48.194977    -0.264973    0.386994    -11.057835    -1.415238    8.751730    3.902617    -1.305415    -0.463651    3.788942    3.771390    12.749842    -3.917324    -2.874133    6.807884    -4.443684    2.423875    6.865372    12.323032    -56.286270    50.205524    -21.178118    3.774125    -2.952968    -20.460102    -9.953615    -1.811465    -5.286609    -2.663208    4.426766    7.350111    63.560387    37.596909    22.197340    -2.362878    3.302078    16.649435    9.274289    3.901953    3.141158    2.182815    -21.844969    5.165834    -3.967672    28.789837    -0.262048    2.329480    -1.365131    19.435982    0.000000    0.000000    0.000000    -3.723977    16.100157    6.057448    0.139345    8.613265    2.235826    4.316711    2.431523    -2.740535    0.000000    0.000000    0.000000    
-13.048617    84.443642    -47.953037    -0.251740    0.496367    -11.042768    -1.450424    8.711160    3.899321    -1.293412    -0.458532    3.783584    3.781360    12.735435    -3.954951    -2.861440    6.800052    -4.482800    2.415764    6.836300    12.272616    -56.219776    50.222122    -21.298920    3.835977    -2.917089    -20.449837    -9.919731    -1.762137    -5.334661    -2.683076    4.449330    7.383589    63.566788    37.652466    22.250336    -2.363050    3.276307    16.591520    9.085325    3.880390    3.275024    2.100368    -21.717354    5.243156    -3.911827    28.678923    -0.400800    2.405482    -1.560888    19.403898    0.000000    0.000000    0.000000    -3.771959    15.973015    5.954187    0.073420    8.844318    2.230855    4.508425    2.704955    -2.632551    0.000000    0.000000    0.000000    
